<svg id="Layer_1" data-name="Layer 1" xmlns="http://www.w3.org/2000/svg" viewBox="0 0 300 229.91"><defs><style>.cls-1,.cls-2{fill:#fff;}.cls-2{fill-rule:evenodd;}</style></defs><title>sna_logo</title><polygon class="cls-1" points="163.42 16.77 108.42 56.73 173.97 103.72 163.18 112.27 93.14 61.96 86.07 56.88 92.91 51.46 155.4 6.35 163.42 0 163.42 16.77"/><polygon class="cls-2" points="163.37 47.38 163.37 25.9 148.46 36.8 163.37 47.38"/><polygon class="cls-1" points="136.58 140.38 191.58 100.42 126.03 53.44 136.82 44.88 206.86 95.2 213.93 100.28 207.09 105.7 144.6 150.8 136.58 157.16 136.58 140.38"/><polygon class="cls-2" points="136.64 109.78 136.63 131.26 151.54 120.36 136.64 109.78"/><polygon class="cls-1" points="259.24 196.57 259.24 167.81 275.29 167.81 275.29 171.79 263.91 171.79 263.91 179 275.29 179 275.29 183.1 263.91 183.1 263.91 192.39 275.29 192.39 275.29 196.57 259.24 196.57"/><path class="cls-1" d="M240.5,180.13h.85c2.48,0,4.12-.29,4.93-.87a3.49,3.49,0,0,0,1.22-3.06,3.9,3.9,0,0,0-1.31-3.35c-.87-.65-2.49-1-4.84-1h-.85Zm-.28,3.62v12.87h-4.38V167.86h6.51a21,21,0,0,1,4.45.37,6.86,6.86,0,0,1,2.7,1.24,6.76,6.76,0,0,1,2.06,2.69,8.77,8.77,0,0,1,.73,3.62,8.06,8.06,0,0,1-1.67,5.4,7.31,7.31,0,0,1-4.93,2.35l9.9,13.09h-5.27l-9.57-12.87Z" transform="translate(0 -0.05)"/><path class="cls-1" d="M229.1,175.12a14.26,14.26,0,0,0-4.19-2.54,12.94,12.94,0,0,0-4.64-.84,10.24,10.24,0,0,0-7.67,3,11.79,11.79,0,0,0-.08,15.51,9.59,9.59,0,0,0,7.26,3,13.28,13.28,0,0,0,4.86-.91,15.33,15.33,0,0,0,4.42-2.73V195a13.64,13.64,0,0,1-4.1,2,17.66,17.66,0,0,1-10.9-.41,14.35,14.35,0,0,1-8.15-8,15.84,15.84,0,0,1-1.13-6,15.66,15.66,0,0,1,1.13-5.94,14.16,14.16,0,0,1,3.27-4.88,14.36,14.36,0,0,1,4.91-3.21,16.1,16.1,0,0,1,6-1.1,15.74,15.74,0,0,1,4.83.74,17,17,0,0,1,4.46,2.24Z" transform="translate(0 -0.05)"/><path class="cls-1" d="M180.22,196.88h-4.9L189.24,167l13.91,29.89h-4.94c-3.35-7.63-5.66-13.14-8.85-20.82l-2.71,6.33c-2.11,4.94-4.09,9.3-6.43,14.49" transform="translate(0 -0.05)"/><path class="cls-1" d="M151.22,178.54l1.06-.61a4.81,4.81,0,0,0,1.66-1.51,3.41,3.41,0,0,0,.55-1.91,2.73,2.73,0,0,0-.75-2,2.58,2.58,0,0,0-2-.78,2.94,2.94,0,0,0-2.13.78,2.69,2.69,0,0,0-.8,2,3.21,3.21,0,0,0,.22,1.18,4.32,4.32,0,0,0,.7,1.08Zm5.16,12.55-6.28-7.25-.73.49a11.6,11.6,0,0,0-2.87,2.45,4.09,4.09,0,0,0-.82,2.46,4.33,4.33,0,0,0,1.33,3.22,4.55,4.55,0,0,0,3.33,1.32,7.19,7.19,0,0,0,3-.67A12.45,12.45,0,0,0,156.38,191.09Zm5,5.79L159,194.14a14.38,14.38,0,0,1-4.19,2.58,12.79,12.79,0,0,1-4.7.84,9.1,9.1,0,0,1-6.44-2.3,7.67,7.67,0,0,1-2.49-5.91,7.45,7.45,0,0,1,1.53-4.52,17.59,17.59,0,0,1,4.86-4.15l-1.16-1.26a7.63,7.63,0,0,1-1.46-2.28,6.51,6.51,0,0,1-.51-2.51,5.91,5.91,0,0,1,2.07-4.65,7.73,7.73,0,0,1,5.33-1.82A7.64,7.64,0,0,1,157,169.8a5.57,5.57,0,0,1,1.9,4.43,6.16,6.16,0,0,1-1.33,3.84,14.71,14.71,0,0,1-4.25,3.46l6,6.95c.57-.58,1.16-1.23,1.77-2s1.24-1.57,1.92-2.52l2.75,2.92a19.35,19.35,0,0,1-1.74,2.38,19.92,19.92,0,0,1-2.09,2.12l4.84,5.47Z" transform="translate(0 -0.05)"/><polygon class="cls-1" points="113.43 196.83 113.43 168.07 129.48 168.07 129.48 172.05 118.09 172.05 118.09 179.25 129.48 179.25 129.48 183.36 118.09 183.36 118.09 192.65 129.48 192.65 129.48 196.83 113.43 196.83"/><path class="cls-1" d="M80.24,196.88V167l18.28,17.57c.49.5,1,1,1.51,1.59s1,1.2,1.61,1.9V168.12h4.3V198L87.31,180.1c-.49-.49-1-1-1.44-1.53s-.9-1.1-1.33-1.69v20Z" transform="translate(0 -0.05)"/><path class="cls-1" d="M69.14,182.56a10.83,10.83,0,0,0-3.09-7.64,10.22,10.22,0,0,0-7.4-3.14,10.47,10.47,0,0,0-4,.8,10.29,10.29,0,0,0-3.41,2.34,10.67,10.67,0,0,0-2.28,3.47,11.2,11.2,0,0,0-.78,4.17,10.65,10.65,0,0,0,3.06,7.59,10.06,10.06,0,0,0,3.4,2.34,10.24,10.24,0,0,0,4,.81,10.11,10.11,0,0,0,4-.81,10.26,10.26,0,0,0,3.4-2.34,10.78,10.78,0,0,0,3.09-7.59m4.86,0a14.53,14.53,0,0,1-4.5,10.66,15.54,15.54,0,0,1-5,3.28,15.57,15.57,0,0,1-16.75-3.28,14.59,14.59,0,0,1-3.34-4.85,15,15,0,0,1,3.34-16.52,15.28,15.28,0,0,1,5-3.26,16.07,16.07,0,0,1,11.79,0,15.2,15.2,0,0,1,5,3.26,15.45,15.45,0,0,1,3.36,4.92A15,15,0,0,1,74,182.56Z" transform="translate(0 -0.05)"/><polygon class="cls-1" points="33.9 172.05 33.9 196.83 29.23 196.83 29.23 172.05 21.59 172.05 21.59 168.07 41.5 168.07 41.5 172.05 33.9 172.05"/><path class="cls-1" d="M0,191.12l3.73-1.72a5.06,5.06,0,0,0,1.95,2.92,6,6,0,0,0,3.61,1,4.66,4.66,0,0,0,3.32-1.16,4.06,4.06,0,0,0,1.23-3.1q0-2.54-4.21-4.52l-.91-.43c-3.17-1.55-5.28-2.94-6.33-4.19A6.89,6.89,0,0,1,.8,175.35a7.37,7.37,0,0,1,2.39-5.7,8.94,8.94,0,0,1,6.26-2.18,10.52,10.52,0,0,1,5.32,1.23,6.47,6.47,0,0,1,3,3.52l-3.65,1.89a6,6,0,0,0-1.9-2,4.38,4.38,0,0,0-2.37-.63,4.36,4.36,0,0,0-3,1,3.33,3.33,0,0,0-1.11,2.63c0,1.73,1.63,3.35,4.88,4.83.25.12.44.22.59.28A17.23,17.23,0,0,1,17,184.06a7,7,0,0,1,1.59,4.68,8.46,8.46,0,0,1-2.57,6.49,9.77,9.77,0,0,1-7,2.41,10,10,0,0,1-6-1.69A7.89,7.89,0,0,1,0,191.12" transform="translate(0 -0.05)"/><path class="cls-1" d="M281.38,190.92l3.72-1.72a5.14,5.14,0,0,0,2,2.93,6,6,0,0,0,3.61,1A4.68,4.68,0,0,0,294,192a4,4,0,0,0,1.22-3.09q0-2.53-4.21-4.52c-.39-.2-.69-.35-.9-.43q-4.75-2.33-6.34-4.2a6.89,6.89,0,0,1-1.58-4.58,7.35,7.35,0,0,1,2.39-5.7,8.89,8.89,0,0,1,6.26-2.18,10.55,10.55,0,0,1,5.32,1.23,6.43,6.43,0,0,1,3,3.52l-3.65,1.89a6.08,6.08,0,0,0-1.9-2,4.47,4.47,0,0,0-2.37-.63,4.34,4.34,0,0,0-3,1,3.32,3.32,0,0,0-1.11,2.62c0,1.73,1.63,3.35,4.88,4.84l.59.27a17.64,17.64,0,0,1,5.85,3.84,7,7,0,0,1,1.59,4.69,8.47,8.47,0,0,1-2.57,6.49,9.82,9.82,0,0,1-7,2.41,10.11,10.11,0,0,1-6-1.69,7.91,7.91,0,0,1-3.07-4.84" transform="translate(0 -0.05)"/><path class="cls-1" d="M290.87,226a3.46,3.46,0,0,0-1.18-2.77,3.75,3.75,0,0,0-1-.63,6.88,6.88,0,0,0-1.54-.36l-.74-.12-.79-.12a5.45,5.45,0,0,1-1.07-.29,2.76,2.76,0,0,1-.82-.47,2,2,0,0,1-.63-1.62,2.42,2.42,0,0,1,.78-1.89A3.15,3.15,0,0,1,286,217a5.22,5.22,0,0,1,1.84.29,4.61,4.61,0,0,1,1.43.91l1-1a5.7,5.7,0,0,0-1.88-1.19,6.83,6.83,0,0,0-2.3-.35,4.8,4.8,0,0,0-3.28,1.07,3.67,3.67,0,0,0-1.21,2.89,3.31,3.31,0,0,0,1.06,2.62,5.11,5.11,0,0,0,2.58,1.06l.81.12.83.14a6.33,6.33,0,0,1,1.14.25,1.94,1.94,0,0,1,.69.42,2.2,2.2,0,0,1,.67,1.75,2.28,2.28,0,0,1-.89,1.91,3.85,3.85,0,0,1-2.42.69,5.76,5.76,0,0,1-2.09-.34,5.12,5.12,0,0,1-1.73-1.19l-1,1a6.09,6.09,0,0,0,2.11,1.42,7.5,7.5,0,0,0,2.7.43,5.41,5.41,0,0,0,3.53-1.07,3.55,3.55,0,0,0,1.32-2.91m-17.1-6.24a2.37,2.37,0,0,1-.77,1.9,3,3,0,0,1-2,.66h-3.74v-5.14H271a3,3,0,0,1,2,.67A2.39,2.39,0,0,1,273.77,219.73Zm1.77,10.11-3.33-6.37a3.85,3.85,0,0,0,2.23-1.28,3.73,3.73,0,0,0,.83-2.48,3.66,3.66,0,0,0-1.16-2.85,4.29,4.29,0,0,0-3-1.05h-5.38v14h1.5v-6.23h3.37l3.19,6.23Zm-16.68,0V228.5h-7.22v-5.07h6.15v-1.34h-6.15v-4.94h7.22v-1.34h-8.71v14ZM242,219.93a2.62,2.62,0,0,1-.81,2.06,3.09,3.09,0,0,1-2.16.73h-3.59v-5.57h3.59a3.13,3.13,0,0,1,2.16.71A2.6,2.6,0,0,1,242,219.93Zm1.5,0a3.92,3.92,0,0,0-1.2-3,4.42,4.42,0,0,0-3.14-1.12H234v14h1.5v-5.78h3.72a4.43,4.43,0,0,0,3.14-1.13A4,4,0,0,0,243.53,219.93Zm-18.34,2.89c0,.8,0,1.45,0,1.94A9.11,9.11,0,0,1,225,226a3.58,3.58,0,0,1-.3.89,2.79,2.79,0,0,1-.53.72,3.34,3.34,0,0,1-1.09.74,3.39,3.39,0,0,1-1.33.26,3.31,3.31,0,0,1-1.32-.26,3.66,3.66,0,0,1-1.11-.74,3.46,3.46,0,0,1-.53-.73,3,3,0,0,1-.29-.89,7.88,7.88,0,0,1-.13-1.24c0-.48,0-1.13,0-1.93s0-1.46,0-1.95a7.61,7.61,0,0,1,.13-1.23,3.21,3.21,0,0,1,.29-.89,3.17,3.17,0,0,1,.53-.72,3.66,3.66,0,0,1,1.11-.74,3.49,3.49,0,0,1,1.32-.26,3.58,3.58,0,0,1,1.33.26,3.34,3.34,0,0,1,1.09.74,3.05,3.05,0,0,1,.83,1.62,9.31,9.31,0,0,1,.13,1.23C225.18,221.36,225.19,222,225.19,222.82Zm1.49,0c0-.92,0-1.62,0-2.11a10.07,10.07,0,0,0-.14-1.38,4.24,4.24,0,0,0-.39-1.17,3.83,3.83,0,0,0-.76-1,5.13,5.13,0,0,0-7.17,0,4.06,4.06,0,0,0-.76,1,4.65,4.65,0,0,0-.38,1.16,9.72,9.72,0,0,0-.15,1.38c0,.5,0,1.2,0,2.12s0,1.62,0,2.11a9.72,9.72,0,0,0,.15,1.38,4.59,4.59,0,0,0,.38,1.17,4.1,4.1,0,0,0,.76,1,5.16,5.16,0,0,0,7.17,0,3.75,3.75,0,0,0,.76-1,4.24,4.24,0,0,0,.39-1.17,9.61,9.61,0,0,0,.14-1.37C226.67,224.44,226.68,223.74,226.68,222.82Zm-15,7V228.5h-7.17V215.81h-1.5v14Zm-15.54,0V228.5H189v-5.07h6.14v-1.34H189v-4.94h7.21v-1.34h-8.71v14Zm-14.66-14H180l-3.64,11.35-3.65-11.35h-1.57l4.61,14h1.22Zm-15.44,14V228.5h-7.22v-5.07H165v-1.34h-6.15v-4.94h7.22v-1.34h-8.71v14Zm-17.5-7.18a20.61,20.61,0,0,1-.17,3.05,2.84,2.84,0,0,1-2,2.54,4.63,4.63,0,0,1-1.53.25h-3.06V217.15h3.06a4.91,4.91,0,0,1,1.53.23,3.13,3.13,0,0,1,1.23.79,3,3,0,0,1,.76,1.65A18.8,18.8,0,0,1,148.59,222.66Zm1.5,0a19,19,0,0,0-.24-3.41,3.9,3.9,0,0,0-1.14-2.14,4.79,4.79,0,0,0-3.55-1.3h-4.8v14h4.8a4.83,4.83,0,0,0,3.55-1.3,4.13,4.13,0,0,0,1.13-2.25A20.67,20.67,0,0,0,150.09,222.66Zm-20.59-6.85h-1.61l-3.27,6.72-3.31-6.72h-1.62l4.18,8.23v5.8h1.49V224Zm-14.32,1.34v-1.34h-9.62v1.34h4.06v12.69h1.5V217.15Zm-16.82,2.58a2.37,2.37,0,0,1-.77,1.9,3,3,0,0,1-2,.66H91.81v-5.14h3.75a3,3,0,0,1,2,.67A2.39,2.39,0,0,1,98.36,219.73Zm1.77,10.11-3.33-6.37A3.89,3.89,0,0,0,99,222.19a3.73,3.73,0,0,0,.82-2.48,3.66,3.66,0,0,0-1.15-2.85,4.29,4.29,0,0,0-3-1.05H90.32v14h1.49v-6.23h3.37l3.2,6.23Zm-16.69,0V228.5H76.23v-5.07h6.15v-1.34H76.23v-4.94h7.21v-1.34H74.73v14Zm-16.82-9.91a2.62,2.62,0,0,1-.81,2.06,3.1,3.1,0,0,1-2.17.73H60.06v-5.57h3.58a3.14,3.14,0,0,1,2.17.71A2.6,2.6,0,0,1,66.62,219.93Zm1.5,0a3.92,3.92,0,0,0-1.2-3,4.42,4.42,0,0,0-3.14-1.12H58.56v14h1.5v-5.78h3.72a4.43,4.43,0,0,0,3.14-1.13A4,4,0,0,0,68.12,219.93Zm-18.34,2.89c0,.8,0,1.45,0,1.94a9.11,9.11,0,0,1-.13,1.24,3.58,3.58,0,0,1-.3.89,2.79,2.79,0,0,1-.53.72,3.34,3.34,0,0,1-1.09.74,3.39,3.39,0,0,1-1.33.26,3.31,3.31,0,0,1-1.32-.26,3.66,3.66,0,0,1-1.11-.74,3.46,3.46,0,0,1-.53-.73,3,3,0,0,1-.29-.89,7.88,7.88,0,0,1-.13-1.24c0-.48,0-1.13,0-1.93s0-1.46,0-1.95a7.61,7.61,0,0,1,.13-1.23,3.21,3.21,0,0,1,.29-.89,3.17,3.17,0,0,1,.53-.72,3.66,3.66,0,0,1,1.11-.74,3.49,3.49,0,0,1,1.32-.26,3.58,3.58,0,0,1,1.33.26,3.34,3.34,0,0,1,1.09.74,3.05,3.05,0,0,1,.83,1.62,9.31,9.31,0,0,1,.13,1.23C49.77,221.36,49.78,222,49.78,222.82Zm1.49,0c0-.92,0-1.62,0-2.11a11.93,11.93,0,0,0-.14-1.38,4.24,4.24,0,0,0-.39-1.17,4.06,4.06,0,0,0-.76-1,5.13,5.13,0,0,0-7.17,0,4.06,4.06,0,0,0-.76,1,4.27,4.27,0,0,0-.38,1.16,9.72,9.72,0,0,0-.15,1.38c0,.5,0,1.2,0,2.12s0,1.62,0,2.11a9.72,9.72,0,0,0,.15,1.38,4.23,4.23,0,0,0,.38,1.17,4.1,4.1,0,0,0,.76,1,5.16,5.16,0,0,0,7.17,0,4,4,0,0,0,.76-1,4.24,4.24,0,0,0,.39-1.17,11.32,11.32,0,0,0,.14-1.37C51.26,224.44,51.27,223.74,51.27,222.82Zm-17.93-3.09a2.37,2.37,0,0,1-.76,1.9,3,3,0,0,1-2,.66H26.8v-5.14h3.75a3,3,0,0,1,2,.67A2.39,2.39,0,0,1,33.34,219.73Zm1.78,10.11-3.33-6.37A3.89,3.89,0,0,0,34,222.19a3.73,3.73,0,0,0,.82-2.48,3.66,3.66,0,0,0-1.15-2.85,4.29,4.29,0,0,0-3-1.05H25.31v14H26.8v-6.23h3.37l3.2,6.23Zm-17.93-9.91a2.62,2.62,0,0,1-.81,2.06,3.09,3.09,0,0,1-2.16.73H10.63v-5.57h3.59a3.13,3.13,0,0,1,2.16.71A2.6,2.6,0,0,1,17.19,219.93Zm1.5,0a3.92,3.92,0,0,0-1.2-3,4.41,4.41,0,0,0-3.14-1.12H9.13v14h1.5v-5.78h3.72a4.41,4.41,0,0,0,3.14-1.13A4,4,0,0,0,18.69,219.93Z" transform="translate(0 -0.05)"/></svg>